<?xml version="1.0" encoding="UTF-8"?>
<svg xmlns="http://www.w3.org/2000/svg" viewBox="0 0 384 120" role="img" aria-label="Neil Garratt">
  <circle cx="50" cy="60" r="50" fill="#0070BA"></circle>
  <path transform="translate(9.89, 77.71)" d="M34.868 0.460L31.694 0.460L9.062-28.060L9.062-2.576L13.110-1.702L13.110 0L1.794 0L1.794-1.702L5.888-2.576L5.888-32.844L1.840-33.718L1.840-35.420L14.306-35.420L31.694-13.570L31.694-32.844L27.646-33.718L27.646-35.420L38.962-35.420L38.962-33.718L34.868-32.844L34.868 0.460ZM74.336-3.726Q72.174-1.932 68.011-0.736Q63.848 0.460 59.846 0.460L59.846 0.460Q54.510 0.460 50.462-1.725Q46.414-3.910 44.183-7.912Q41.952-11.914 41.952-17.158L41.952-17.158Q41.952-22.586 44.298-26.841Q46.644-31.096 50.853-33.488Q55.062-35.880 60.398-35.880L60.398-35.880Q63.480-35.880 66.171-35.144Q68.862-34.408 70.564-33.074L70.564-33.074L70.748-33.074L72.772-35.420L74.244-35.420L74.244-24.150L72.174-24.150Q69.782-29.072 67.321-31.096Q64.860-33.120 61.226-33.120L61.226-33.120Q55.982-33.120 53.383-29.187Q50.784-25.254 50.784-17.342L50.784-17.342Q50.784-9.430 52.969-5.819Q55.154-2.208 59.846-2.208L59.846-2.208Q61.824-2.208 63.457-2.921Q65.090-3.634 65.918-4.830L65.918-4.830Q66.240-5.290 66.332-5.796Q66.424-6.302 66.424-7.406L66.424-7.406L66.424-15.180L62.284-16.054L62.284-17.756L78.430-17.756L78.430-16.054L74.336-15.180L74.336-3.726Z" fill="#ffffff"></path>
  <path transform="translate(124, 0)" d="M30.320 70.400L27.560 70.400L7.880 45.600L7.880 67.760L11.400 68.520L11.400 70L1.560 70L1.560 68.520L5.120 67.760L5.120 41.440L1.600 40.680L1.600 39.200L12.440 39.200L27.560 58.200L27.560 41.440L24.040 40.680L24.040 39.200L33.880 39.200L33.880 40.680L30.320 41.440L30.320 70.400ZM57.080 58.160L56.760 58.400L42.200 58.400Q42.240 62.400 43.800 64.340Q45.360 66.280 48.480 66.280L48.480 66.280Q50.320 66.280 52.100 65.600Q53.880 64.920 55 63.640L55 63.640L55.280 63.320L56.400 64.280L56.200 64.760Q55.120 67.400 52.500 68.900Q49.880 70.400 46.560 70.400L46.560 70.400Q43.280 70.400 40.780 69.060Q38.280 67.720 36.920 65.300Q35.560 62.880 35.560 59.720L35.560 59.720Q35.560 56.400 37.080 53.820Q38.600 51.240 41.320 49.820Q44.040 48.400 47.560 48.400L47.560 48.400Q52.120 48.400 54.520 50.880Q56.920 53.360 57.080 58.160L57.080 58.160ZM50.440 56.200Q50.600 55.720 50.600 54.680L50.600 54.680Q50.600 52.600 49.680 51.520Q48.760 50.440 47.040 50.440L47.040 50.440Q45 50.440 43.780 52Q42.560 53.560 42.280 56.480L42.280 56.480L50.440 56.200ZM62.240 42.120Q62.240 40.760 63.180 39.780Q64.120 38.800 65.680 38.800L65.680 38.800Q67.280 38.800 68.260 39.780Q69.240 40.760 69.240 42.120L69.240 42.120Q69.240 43.440 68.300 44.420Q67.360 45.400 65.680 45.400L65.680 45.400Q64.080 45.400 63.160 44.420Q62.240 43.440 62.240 42.120L62.240 42.120ZM72.040 68.600L72.040 70L59.240 70L59.240 68.600L62.640 67.800L62.640 52.360L59.240 51.280L59.240 50.320L68 48.400L68.840 48.400L68.840 67.800L72.040 68.600ZM86.160 68.600L86.160 70L73.360 70L73.360 68.600L76.760 67.800L76.760 40.760L73.360 39.680L73.360 38.720L82.120 36.800L82.960 36.800L82.960 67.800L86.160 68.600ZM127 66.760Q125.120 68.320 121.500 69.360Q117.880 70.400 114.400 70.400L114.400 70.400Q109.760 70.400 106.240 68.500Q102.720 66.600 100.780 63.120Q98.840 59.640 98.840 55.080L98.840 55.080Q98.840 50.360 100.880 46.660Q102.920 42.960 106.580 40.880Q110.240 38.800 114.880 38.800L114.880 38.800Q117.560 38.800 119.900 39.440Q122.240 40.080 123.720 41.240L123.720 41.240L123.880 41.240L125.640 39.200L126.920 39.200L126.920 49L125.120 49Q123.040 44.720 120.900 42.960Q118.760 41.200 115.600 41.200L115.600 41.200Q111.040 41.200 108.780 44.620Q106.520 48.040 106.520 54.920L106.520 54.920Q106.520 61.800 108.420 64.940Q110.320 68.080 114.400 68.080L114.400 68.080Q116.120 68.080 117.540 67.460Q118.960 66.840 119.680 65.800L119.680 65.800Q119.960 65.400 120.040 64.960Q120.120 64.520 120.120 63.560L120.120 63.560L120.120 56.800L116.520 56.040L116.520 54.560L130.560 54.560L130.560 56.040L127 56.800L127 66.760ZM138.040 70.400Q135.560 70.400 134.160 69.140Q132.760 67.880 132.760 65.680L132.760 65.680Q132.760 62.680 135.600 60.880Q138.440 59.080 144.480 58.240L144.480 58.240L144.480 55.320Q144.480 53.440 144.260 52.480Q144.040 51.520 143.540 51.120Q143.040 50.720 142.040 50.720L142.040 50.720Q140.520 50.720 139.660 51.460Q138.800 52.200 138.800 53.440L138.800 53.440Q138.800 53.720 138.880 54.360L138.880 54.360Q138.960 54.920 138.960 55.200L138.960 55.200Q138.960 56.320 138.160 57.100Q137.360 57.880 136.200 57.880L136.200 57.880Q135.040 57.880 134.300 57.120Q133.560 56.360 133.560 55.160L133.560 55.160Q133.560 53.880 134.400 52.640Q135.240 51.400 136.720 50.400L136.720 50.400Q139.800 48.400 144.280 48.400L144.280 48.400Q148.440 48.400 149.760 50.400L149.760 50.400Q150.240 51.160 150.460 52.380Q150.680 53.600 150.680 55.760L150.680 55.760L150.680 64Q150.680 65.760 151.040 66.560Q151.400 67.360 152.200 67.360L152.200 67.360Q153.120 67.360 153.960 66.400L153.960 66.400L154.880 67.720Q153.600 69.080 152.180 69.740Q150.760 70.400 149.040 70.400L149.040 70.400Q147.120 70.400 146.100 69.620Q145.080 68.840 144.760 67.240L144.760 67.240L144.600 67.240Q141.680 70.400 138.040 70.400L138.040 70.400ZM141.720 66.640Q143.400 66.640 144.480 65.480L144.480 65.480L144.480 60.120Q142.520 60.520 141.440 61Q140.360 61.480 139.900 62.180Q139.440 62.880 139.440 64.040L139.440 64.040Q139.440 65.360 140 66Q140.560 66.640 141.720 66.640L141.720 66.640ZM170.720 48.360Q172.200 48.360 173.200 49.200Q174.200 50.040 174.200 51.320L174.200 51.320Q174.200 52.520 173.480 53.340Q172.760 54.160 171.720 54.160L171.720 54.160Q170.640 54.160 169.760 53.400L169.760 53.400Q169.160 52.880 168.700 52.660Q168.240 52.440 167.760 52.440L167.760 52.440Q166.640 52.440 165.880 53.440L165.880 53.440Q165.280 54.200 165.140 54.480Q165 54.760 164.960 54.940Q164.920 55.120 164.920 55.200L164.920 55.200L164.920 67.800L170.160 68.600L170.160 70L155.720 70L155.720 68.600L158.720 67.800L158.720 52.400L155.680 51.280L155.680 50.320L163.880 48.400L164.720 48.400L164.720 52Q166.240 50.240 167.780 49.300Q169.320 48.360 170.720 48.360L170.720 48.360ZM190.480 48.360Q191.960 48.360 192.960 49.200Q193.960 50.040 193.960 51.320L193.960 51.320Q193.960 52.520 193.240 53.340Q192.520 54.160 191.480 54.160L191.480 54.160Q190.400 54.160 189.520 53.400L189.520 53.400Q188.920 52.880 188.460 52.660Q188 52.440 187.520 52.440L187.520 52.440Q186.400 52.440 185.640 53.440L185.640 53.440Q185.040 54.200 184.900 54.480Q184.760 54.760 184.720 54.940Q184.680 55.120 184.680 55.200L184.680 55.200L184.680 67.800L189.920 68.600L189.920 70L175.480 70L175.480 68.600L178.480 67.800L178.480 52.400L175.440 51.280L175.440 50.320L183.640 48.400L184.480 48.400L184.480 52Q186 50.240 187.540 49.300Q189.080 48.360 190.480 48.360L190.480 48.360ZM200.560 70.400Q198.080 70.400 196.680 69.140Q195.280 67.880 195.280 65.680L195.280 65.680Q195.280 62.680 198.120 60.880Q200.960 59.080 207 58.240L207 58.240L207 55.320Q207 53.440 206.780 52.480Q206.560 51.520 206.060 51.120Q205.560 50.720 204.560 50.720L204.560 50.720Q203.040 50.720 202.180 51.460Q201.320 52.200 201.320 53.440L201.320 53.440Q201.320 53.720 201.400 54.360L201.400 54.360Q201.480 54.920 201.480 55.200L201.480 55.200Q201.480 56.320 200.680 57.100Q199.880 57.880 198.720 57.880L198.720 57.880Q197.560 57.880 196.820 57.120Q196.080 56.360 196.080 55.160L196.080 55.160Q196.080 53.880 196.920 52.640Q197.760 51.400 199.240 50.400L199.240 50.400Q202.320 48.400 206.800 48.400L206.800 48.400Q210.960 48.400 212.280 50.400L212.280 50.400Q212.760 51.160 212.980 52.380Q213.200 53.600 213.200 55.760L213.200 55.760L213.200 64Q213.200 65.760 213.560 66.560Q213.920 67.360 214.720 67.360L214.720 67.360Q215.640 67.360 216.480 66.400L216.480 66.400L217.400 67.720Q216.120 69.080 214.700 69.740Q213.280 70.400 211.560 70.400L211.560 70.400Q209.640 70.400 208.620 69.620Q207.600 68.840 207.280 67.240L207.280 67.240L207.120 67.240Q204.200 70.400 200.560 70.400L200.560 70.400ZM204.240 66.640Q205.920 66.640 207 65.480L207 65.480L207 60.120Q205.040 60.520 203.960 61Q202.880 61.480 202.420 62.180Q201.960 62.880 201.960 64.040L201.960 64.040Q201.960 65.360 202.520 66Q203.080 66.640 204.240 66.640L204.240 66.640ZM226.640 70.400Q225.440 70.400 224.300 70.100Q223.160 69.800 222.440 69.280L222.440 69.280Q221.600 68.640 221.260 67.540Q220.920 66.440 220.920 64.720L220.920 64.720L220.920 50.800L218.080 50.800L217.840 49.560L225.880 43.440L227.120 43.640L227.120 48.800L233.320 48.800L232.720 50.800L227.120 50.800L227.120 63.360Q227.120 64.840 227.200 65.440Q227.280 66.040 227.520 66.400L227.520 66.400Q228.200 67.520 229.640 67.520L229.640 67.520Q231.160 67.520 232.120 66.400L232.120 66.400L233.040 67.720Q232 69.040 230.340 69.720Q228.680 70.400 226.640 70.400L226.640 70.400ZM242.880 70.400Q241.680 70.400 240.540 70.100Q239.400 69.800 238.680 69.280L238.680 69.280Q237.840 68.640 237.500 67.540Q237.160 66.440 237.160 64.720L237.160 64.720L237.160 50.800L234.320 50.800L234.080 49.560L242.120 43.440L243.360 43.640L243.360 48.800L249.560 48.800L248.960 50.800L243.360 50.800L243.360 63.360Q243.360 64.840 243.440 65.440Q243.520 66.040 243.760 66.400L243.760 66.400Q244.440 67.520 245.880 67.520L245.880 67.520Q247.400 67.520 248.360 66.400L248.360 66.400L249.280 67.720Q248.240 69.040 246.580 69.720Q244.920 70.400 242.880 70.400L242.880 70.400Z" fill="#1a2332"></path>
</svg>