<?xml version="1.0" encoding="UTF-8"?>
<svg xmlns="http://www.w3.org/2000/svg" viewBox="0 0 757 120" role="img" aria-label="Neil Garratt / Croydon and Sutton">
  <circle cx="50" cy="60" r="50" fill="#0070BA"></circle>
  <path transform="translate(9.89, 77.71)" d="M34.868 0.460L31.694 0.460L9.062-28.060L9.062-2.576L13.110-1.702L13.110 0L1.794 0L1.794-1.702L5.888-2.576L5.888-32.844L1.840-33.718L1.840-35.420L14.306-35.420L31.694-13.570L31.694-32.844L27.646-33.718L27.646-35.420L38.962-35.420L38.962-33.718L34.868-32.844L34.868 0.460ZM74.336-3.726Q72.174-1.932 68.011-0.736Q63.848 0.460 59.846 0.460L59.846 0.460Q54.510 0.460 50.462-1.725Q46.414-3.910 44.183-7.912Q41.952-11.914 41.952-17.158L41.952-17.158Q41.952-22.586 44.298-26.841Q46.644-31.096 50.853-33.488Q55.062-35.880 60.398-35.880L60.398-35.880Q63.480-35.880 66.171-35.144Q68.862-34.408 70.564-33.074L70.564-33.074L70.748-33.074L72.772-35.420L74.244-35.420L74.244-24.150L72.174-24.150Q69.782-29.072 67.321-31.096Q64.860-33.120 61.226-33.120L61.226-33.120Q55.982-33.120 53.383-29.187Q50.784-25.254 50.784-17.342L50.784-17.342Q50.784-9.430 52.969-5.819Q55.154-2.208 59.846-2.208L59.846-2.208Q61.824-2.208 63.457-2.921Q65.090-3.634 65.918-4.830L65.918-4.830Q66.240-5.290 66.332-5.796Q66.424-6.302 66.424-7.406L66.424-7.406L66.424-15.180L62.284-16.054L62.284-17.756L78.430-17.756L78.430-16.054L74.336-15.180L74.336-3.726Z" fill="#ffffff"></path>
  <path transform="translate(124, 0)" d="M30.320 70.400L27.560 70.400L7.880 45.600L7.880 67.760L11.400 68.520L11.400 70L1.560 70L1.560 68.520L5.120 67.760L5.120 41.440L1.600 40.680L1.600 39.200L12.440 39.200L27.560 58.200L27.560 41.440L24.040 40.680L24.040 39.200L33.880 39.200L33.880 40.680L30.320 41.440L30.320 70.400ZM57.080 58.160L56.760 58.400L42.200 58.400Q42.240 62.400 43.800 64.340Q45.360 66.280 48.480 66.280L48.480 66.280Q50.320 66.280 52.100 65.600Q53.880 64.920 55 63.640L55 63.640L55.280 63.320L56.400 64.280L56.200 64.760Q55.120 67.400 52.500 68.900Q49.880 70.400 46.560 70.400L46.560 70.400Q43.280 70.400 40.780 69.060Q38.280 67.720 36.920 65.300Q35.560 62.880 35.560 59.720L35.560 59.720Q35.560 56.400 37.080 53.820Q38.600 51.240 41.320 49.820Q44.040 48.400 47.560 48.400L47.560 48.400Q52.120 48.400 54.520 50.880Q56.920 53.360 57.080 58.160L57.080 58.160ZM50.440 56.200Q50.600 55.720 50.600 54.680L50.600 54.680Q50.600 52.600 49.680 51.520Q48.760 50.440 47.040 50.440L47.040 50.440Q45 50.440 43.780 52Q42.560 53.560 42.280 56.480L42.280 56.480L50.440 56.200ZM62.240 42.120Q62.240 40.760 63.180 39.780Q64.120 38.800 65.680 38.800L65.680 38.800Q67.280 38.800 68.260 39.780Q69.240 40.760 69.240 42.120L69.240 42.120Q69.240 43.440 68.300 44.420Q67.360 45.400 65.680 45.400L65.680 45.400Q64.080 45.400 63.160 44.420Q62.240 43.440 62.240 42.120L62.240 42.120ZM72.040 68.600L72.040 70L59.240 70L59.240 68.600L62.640 67.800L62.640 52.360L59.240 51.280L59.240 50.320L68 48.400L68.840 48.400L68.840 67.800L72.040 68.600ZM86.160 68.600L86.160 70L73.360 70L73.360 68.600L76.760 67.800L76.760 40.760L73.360 39.680L73.360 38.720L82.120 36.800L82.960 36.800L82.960 67.800L86.160 68.600ZM127 66.760Q125.120 68.320 121.500 69.360Q117.880 70.400 114.400 70.400L114.400 70.400Q109.760 70.400 106.240 68.500Q102.720 66.600 100.780 63.120Q98.840 59.640 98.840 55.080L98.840 55.080Q98.840 50.360 100.880 46.660Q102.920 42.960 106.580 40.880Q110.240 38.800 114.880 38.800L114.880 38.800Q117.560 38.800 119.900 39.440Q122.240 40.080 123.720 41.240L123.720 41.240L123.880 41.240L125.640 39.200L126.920 39.200L126.920 49L125.120 49Q123.040 44.720 120.900 42.960Q118.760 41.200 115.600 41.200L115.600 41.200Q111.040 41.200 108.780 44.620Q106.520 48.040 106.520 54.920L106.520 54.920Q106.520 61.800 108.420 64.940Q110.320 68.080 114.400 68.080L114.400 68.080Q116.120 68.080 117.540 67.460Q118.960 66.840 119.680 65.800L119.680 65.800Q119.960 65.400 120.040 64.960Q120.120 64.520 120.120 63.560L120.120 63.560L120.120 56.800L116.520 56.040L116.520 54.560L130.560 54.560L130.560 56.040L127 56.800L127 66.760ZM138.040 70.400Q135.560 70.400 134.160 69.140Q132.760 67.880 132.760 65.680L132.760 65.680Q132.760 62.680 135.600 60.880Q138.440 59.080 144.480 58.240L144.480 58.240L144.480 55.320Q144.480 53.440 144.260 52.480Q144.040 51.520 143.540 51.120Q143.040 50.720 142.040 50.720L142.040 50.720Q140.520 50.720 139.660 51.460Q138.800 52.200 138.800 53.440L138.800 53.440Q138.800 53.720 138.880 54.360L138.880 54.360Q138.960 54.920 138.960 55.200L138.960 55.200Q138.960 56.320 138.160 57.100Q137.360 57.880 136.200 57.880L136.200 57.880Q135.040 57.880 134.300 57.120Q133.560 56.360 133.560 55.160L133.560 55.160Q133.560 53.880 134.400 52.640Q135.240 51.400 136.720 50.400L136.720 50.400Q139.800 48.400 144.280 48.400L144.280 48.400Q148.440 48.400 149.760 50.400L149.760 50.400Q150.240 51.160 150.460 52.380Q150.680 53.600 150.680 55.760L150.680 55.760L150.680 64Q150.680 65.760 151.040 66.560Q151.400 67.360 152.200 67.360L152.200 67.360Q153.120 67.360 153.960 66.400L153.960 66.400L154.880 67.720Q153.600 69.080 152.180 69.740Q150.760 70.400 149.040 70.400L149.040 70.400Q147.120 70.400 146.100 69.620Q145.080 68.840 144.760 67.240L144.760 67.240L144.600 67.240Q141.680 70.400 138.040 70.400L138.040 70.400ZM141.720 66.640Q143.400 66.640 144.480 65.480L144.480 65.480L144.480 60.120Q142.520 60.520 141.440 61Q140.360 61.480 139.900 62.180Q139.440 62.880 139.440 64.040L139.440 64.040Q139.440 65.360 140 66Q140.560 66.640 141.720 66.640L141.720 66.640ZM170.720 48.360Q172.200 48.360 173.200 49.200Q174.200 50.040 174.200 51.320L174.200 51.320Q174.200 52.520 173.480 53.340Q172.760 54.160 171.720 54.160L171.720 54.160Q170.640 54.160 169.760 53.400L169.760 53.400Q169.160 52.880 168.700 52.660Q168.240 52.440 167.760 52.440L167.760 52.440Q166.640 52.440 165.880 53.440L165.880 53.440Q165.280 54.200 165.140 54.480Q165 54.760 164.960 54.940Q164.920 55.120 164.920 55.200L164.920 55.200L164.920 67.800L170.160 68.600L170.160 70L155.720 70L155.720 68.600L158.720 67.800L158.720 52.400L155.680 51.280L155.680 50.320L163.880 48.400L164.720 48.400L164.720 52Q166.240 50.240 167.780 49.300Q169.320 48.360 170.720 48.360L170.720 48.360ZM190.480 48.360Q191.960 48.360 192.960 49.200Q193.960 50.040 193.960 51.320L193.960 51.320Q193.960 52.520 193.240 53.340Q192.520 54.160 191.480 54.160L191.480 54.160Q190.400 54.160 189.520 53.400L189.520 53.400Q188.920 52.880 188.460 52.660Q188 52.440 187.520 52.440L187.520 52.440Q186.400 52.440 185.640 53.440L185.640 53.440Q185.040 54.200 184.900 54.480Q184.760 54.760 184.720 54.940Q184.680 55.120 184.680 55.200L184.680 55.200L184.680 67.800L189.920 68.600L189.920 70L175.480 70L175.480 68.600L178.480 67.800L178.480 52.400L175.440 51.280L175.440 50.320L183.640 48.400L184.480 48.400L184.480 52Q186 50.240 187.540 49.300Q189.080 48.360 190.480 48.360L190.480 48.360ZM200.560 70.400Q198.080 70.400 196.680 69.140Q195.280 67.880 195.280 65.680L195.280 65.680Q195.280 62.680 198.120 60.880Q200.960 59.080 207 58.240L207 58.240L207 55.320Q207 53.440 206.780 52.480Q206.560 51.520 206.060 51.120Q205.560 50.720 204.560 50.720L204.560 50.720Q203.040 50.720 202.180 51.460Q201.320 52.200 201.320 53.440L201.320 53.440Q201.320 53.720 201.400 54.360L201.400 54.360Q201.480 54.920 201.480 55.200L201.480 55.200Q201.480 56.320 200.680 57.100Q199.880 57.880 198.720 57.880L198.720 57.880Q197.560 57.880 196.820 57.120Q196.080 56.360 196.080 55.160L196.080 55.160Q196.080 53.880 196.920 52.640Q197.760 51.400 199.240 50.400L199.240 50.400Q202.320 48.400 206.800 48.400L206.800 48.400Q210.960 48.400 212.280 50.400L212.280 50.400Q212.760 51.160 212.980 52.380Q213.200 53.600 213.200 55.760L213.200 55.760L213.200 64Q213.200 65.760 213.560 66.560Q213.920 67.360 214.720 67.360L214.720 67.360Q215.640 67.360 216.480 66.400L216.480 66.400L217.400 67.720Q216.120 69.080 214.700 69.740Q213.280 70.400 211.560 70.400L211.560 70.400Q209.640 70.400 208.620 69.620Q207.600 68.840 207.280 67.240L207.280 67.240L207.120 67.240Q204.200 70.400 200.560 70.400L200.560 70.400ZM204.240 66.640Q205.920 66.640 207 65.480L207 65.480L207 60.120Q205.040 60.520 203.960 61Q202.880 61.480 202.420 62.180Q201.960 62.880 201.960 64.040L201.960 64.040Q201.960 65.360 202.520 66Q203.080 66.640 204.240 66.640L204.240 66.640ZM226.640 70.400Q225.440 70.400 224.300 70.100Q223.160 69.800 222.440 69.280L222.440 69.280Q221.600 68.640 221.260 67.540Q220.920 66.440 220.920 64.720L220.920 64.720L220.920 50.800L218.080 50.800L217.840 49.560L225.880 43.440L227.120 43.640L227.120 48.800L233.320 48.800L232.720 50.800L227.120 50.800L227.120 63.360Q227.120 64.840 227.200 65.440Q227.280 66.040 227.520 66.400L227.520 66.400Q228.200 67.520 229.640 67.520L229.640 67.520Q231.160 67.520 232.120 66.400L232.120 66.400L233.040 67.720Q232 69.040 230.340 69.720Q228.680 70.400 226.640 70.400L226.640 70.400ZM242.880 70.400Q241.680 70.400 240.540 70.100Q239.400 69.800 238.680 69.280L238.680 69.280Q237.840 68.640 237.500 67.540Q237.160 66.440 237.160 64.720L237.160 64.720L237.160 50.800L234.320 50.800L234.080 49.560L242.120 43.440L243.360 43.640L243.360 48.800L249.560 48.800L248.960 50.800L243.360 50.800L243.360 63.360Q243.360 64.840 243.440 65.440Q243.520 66.040 243.760 66.400L243.760 66.400Q244.440 67.520 245.880 67.520L245.880 67.520Q247.400 67.520 248.360 66.400L248.360 66.400L249.280 67.720Q248.240 69.040 246.580 69.720Q244.920 70.400 242.880 70.400L242.880 70.400Z" fill="#1a2332"></path>
  <path transform="translate(385.64, 0)" d="M1.880 76.760L9.880 37.240L12.640 37.240L4.600 76.760L1.880 76.760Z" fill="#0070BA"></path>
  <path transform="translate(402.16, 0)" d="M21.600 66.920L21.440 66.920Q19.080 68.760 16.860 69.580Q14.640 70.400 11.920 70.400L11.920 70.400Q2.520 70.400 2.520 61.480L2.520 61.480Q2.520 55.960 5.840 50.680Q9.160 45.400 14.440 42.100Q19.720 38.800 25.280 38.800L25.280 38.800Q27.200 38.800 28.840 39.260Q30.480 39.720 31.560 40.520L31.560 40.520L33 39.200L33.880 39.200L30 48.400L28.840 48.400Q29.440 46.160 29.440 44.640L29.440 44.640Q29.440 42.520 28.340 41.540Q27.240 40.560 24.880 40.560L24.880 40.560Q20.480 40.560 16.300 43.560Q12.120 46.560 9.520 51.380Q6.920 56.200 6.920 61.240L6.920 61.240Q6.920 68.520 13 68.520L13 68.520Q16.880 68.520 20.240 65.780Q23.600 63.040 25.640 58.280L25.640 58.280L26.800 58.280L22.360 70L21.280 70L21.600 66.920ZM47.200 48.400Q48.520 48.400 49.360 49.020Q50.200 49.640 50.200 50.640L50.200 50.640Q50.200 51.480 49.740 51.960Q49.280 52.440 48.440 52.440L48.440 52.440Q47.920 52.440 47.600 52.260Q47.280 52.080 46.880 51.720L46.880 51.720Q46.520 51.360 46.220 51.180Q45.920 51 45.440 51L45.440 51Q43.760 51 41.760 53.720Q39.760 56.440 36.960 62.240L36.960 62.240L33.240 70L29.360 70L37.080 52.160Q37.520 51.120 37.520 50.680L37.520 50.680Q37.520 50.200 37 50.200L37 50.200Q36.320 50.200 35.100 51.160Q33.880 52.120 32.680 53.600L32.680 53.600L31.920 52.960Q33.520 50.920 35.480 49.660Q37.440 48.400 39.080 48.400L39.080 48.400Q39.960 48.400 40.460 48.920Q40.960 49.440 40.960 50.440L40.960 50.440Q40.960 51.280 40.600 52.200Q40.240 53.120 39.240 54.720L39.240 54.720L39.440 54.800Q41.480 51.440 43.360 49.920Q45.240 48.400 47.200 48.400L47.200 48.400ZM53.960 70.400Q57.160 70.400 60.480 68.040Q63.800 65.680 65.960 62.080Q68.120 58.480 68.120 54.960L68.120 54.960Q68.120 51.920 66.560 50.160Q65 48.400 62.160 48.400L62.160 48.400Q58.920 48.400 55.620 50.760Q52.320 53.120 50.180 56.720Q48.040 60.320 48.040 63.800L48.040 63.800Q48.040 66.880 49.580 68.640Q51.120 70.400 53.960 70.400L53.960 70.400ZM62.640 49.800Q63.640 49.800 64.100 50.480Q64.560 51.160 64.560 52.520L64.560 52.520Q64.560 55.360 62.620 59.300Q60.680 63.240 58.040 66.120Q55.400 69 53.480 69L53.480 69Q52.520 69 52.100 68.280Q51.680 67.560 51.680 66.080L51.680 66.080Q51.680 63.080 53.540 59.200Q55.400 55.320 58 52.560Q60.600 49.800 62.640 49.800L62.640 49.800ZM71.880 52.680Q73.560 50.480 74.560 50.480L74.560 50.480Q75.280 50.480 75.700 51.600Q76.120 52.720 76.300 55.300Q76.480 57.880 76.480 62.360L76.480 62.360Q76.480 67.800 76.280 70.300Q76.080 72.800 75.660 73.860Q75.240 74.920 74.200 76.160L74.200 76.160Q73.400 77.120 72.480 77.680Q71.560 78.240 70.800 78.240L70.800 78.240Q70.240 78.240 69.920 78.020Q69.600 77.800 69.200 77.320L69.200 77.320Q68.800 76.800 68.400 76.520Q68 76.240 67.280 76.240L67.280 76.240Q66.400 76.240 65.900 76.700Q65.400 77.160 65.400 77.960L65.400 77.960Q65.400 79 66.380 79.620Q67.360 80.240 68.880 80.240L68.880 80.240Q72.600 80.240 77.620 74.520Q82.640 68.800 86.440 61.540Q90.240 54.280 90.240 50.880L90.240 50.880Q90.240 49.760 89.700 49.080Q89.160 48.400 88.240 48.400L88.240 48.400Q87.360 48.400 86.780 49.040Q86.200 49.680 86.200 50.720L86.200 50.720Q86.200 51.280 86.320 52.360L86.320 52.360Q86.520 54.840 86.520 55.080L86.520 55.080Q86.520 57.440 84.860 61.260Q83.200 65.080 80.720 68.120L80.720 68.120L80.600 68Q80.840 63.560 80.840 60.640L80.840 60.640Q80.840 55.560 80.520 52.960Q80.200 50.360 79.420 49.380Q78.640 48.400 77.200 48.400L77.200 48.400Q75.480 48.400 73.800 49.400Q72.120 50.400 71.120 52.080L71.120 52.080L71.880 52.680ZM110.440 37.800L113.520 38.280L108.880 50.280Q108.120 49.240 107.360 48.820Q106.600 48.400 105.480 48.400L105.480 48.400Q102.240 48.400 98.880 51.020Q95.520 53.640 93.320 57.600Q91.120 61.560 91.120 65.200L91.120 65.200Q91.120 70.400 95.480 70.400L95.480 70.400Q97.640 70.400 99.500 68.940Q101.360 67.480 103.760 63.920L103.760 63.920L103.840 64.040Q103.240 65.200 102.960 66.020Q102.680 66.840 102.680 67.520L102.680 67.520Q102.680 69 103.260 69.700Q103.840 70.400 105.120 70.400L105.120 70.400Q108.480 70.400 112.440 65.040L112.440 65.040L111.640 64.480Q109.960 66.400 109 67.220Q108.040 68.040 107.440 68.040L107.440 68.040Q106.720 68.040 106.720 67.280L106.720 67.280Q106.720 66.800 107.160 65.640L107.160 65.640L117.880 37.200L110.240 37.200L110.440 37.800ZM96.200 69Q95.520 69 95.120 68.440Q94.720 67.880 94.720 66.760L94.720 66.760Q94.720 63.960 96.740 59.860Q98.760 55.760 101.480 52.720Q104.200 49.680 106.160 49.680L106.160 49.680Q106.920 49.680 107.400 50.200Q107.880 50.720 108.040 51.680L108.040 51.680Q108 52.320 107.800 53.060Q107.600 53.800 107.040 55.120L107.040 55.120Q105.520 58.800 103.500 62Q101.480 65.200 99.500 67.100Q97.520 69 96.200 69L96.200 69ZM121.560 70.400Q124.760 70.400 128.080 68.040Q131.400 65.680 133.560 62.080Q135.720 58.480 135.720 54.960L135.720 54.960Q135.720 51.920 134.160 50.160Q132.600 48.400 129.760 48.400L129.760 48.400Q126.520 48.400 123.220 50.760Q119.920 53.120 117.780 56.720Q115.640 60.320 115.640 63.800L115.640 63.800Q115.640 66.880 117.180 68.640Q118.720 70.400 121.560 70.400L121.560 70.400ZM130.240 49.800Q131.240 49.800 131.700 50.480Q132.160 51.160 132.160 52.520L132.160 52.520Q132.160 55.360 130.220 59.300Q128.280 63.240 125.640 66.120Q123 69 121.080 69L121.080 69Q120.120 69 119.700 68.280Q119.280 67.560 119.280 66.080L119.280 66.080Q119.280 63.080 121.140 59.200Q123 55.320 125.600 52.560Q128.200 49.800 130.240 49.800L130.240 49.800ZM147.240 48.400Q145.320 48.400 143.260 49.640Q141.200 50.880 139.680 52.960L139.680 52.960L140.480 53.600Q141.720 52.080 142.880 51.140Q144.040 50.200 144.720 50.200L144.720 50.200Q145.280 50.200 145.280 50.800L145.280 50.800Q145.280 51.080 144.840 52.160L144.840 52.160L137.160 70L141.040 70L144.760 62.240Q146.440 58.720 148.420 55.880Q150.400 53.040 152.240 51.420Q154.080 49.800 155.440 49.800L155.440 49.800Q156.040 49.800 156.380 50.120Q156.720 50.440 156.720 51L156.720 51Q156.720 51.880 156.200 52.920L156.200 52.920L150.760 63.680Q149.320 66.560 149.320 68.280L149.320 68.280Q149.320 70.400 151.680 70.400L151.680 70.400Q155.440 70.400 159.720 65.040L159.720 65.040L158.880 64.440Q157.360 66.160 156.120 67.100Q154.880 68.040 154.200 68.040L154.200 68.040Q153.720 68.040 153.720 67.480L153.720 67.480Q153.720 66.760 154.520 65.160L154.520 65.160L159.200 55.600Q160.200 53.600 160.200 51.920L160.200 51.920Q160.200 50.200 159.280 49.320Q158.360 48.440 156.560 48.440L156.560 48.440Q154.360 48.440 152.260 49.920Q150.160 51.400 147.560 54.800L147.560 54.800L147.400 54.720Q148.360 52.960 148.760 51.880Q149.160 50.800 149.160 50L149.160 50Q149.160 49.160 148.700 48.780Q148.240 48.400 147.240 48.400L147.240 48.400ZM191.160 66.480Q194.800 66.480 197.800 65.220Q200.800 63.960 202.500 61.780Q204.200 59.600 204.200 56.960L204.200 56.960Q204.200 54.640 202.760 53.340Q201.320 52.040 198.880 52.040L198.880 52.040Q197.640 52.040 196.540 52.440Q195.440 52.840 194.780 53.480Q194.120 54.120 194.120 54.760L194.120 54.760Q194.120 55.320 194.480 55.560Q194.840 55.800 195.560 56L195.560 56Q196.400 56.240 196.820 56.560Q197.240 56.880 197.240 57.640L197.240 57.640Q197.240 58.400 196.600 58.840Q195.960 59.280 195.080 59.280L195.080 59.280Q193.960 59.280 193.040 58.400Q192.120 57.520 192.120 56L192.120 56Q192.120 54.240 192.960 53.140Q193.800 52.040 196.020 51.240Q198.240 50.440 202.520 49.720L202.520 49.720Q205.400 49.240 207.140 48.740Q208.880 48.240 209.960 47.180Q211.040 46.120 211.040 44.280L211.040 44.280Q211.040 42.920 210.340 42.180Q209.640 41.440 208.600 41.440L208.600 41.440Q207.960 41.440 207.500 41.720Q207.040 42 206.480 42.520L206.480 42.520Q205.920 43.040 205.520 43.280Q205.120 43.520 204.560 43.520L204.560 43.520Q203.840 43.520 203.420 43.100Q203 42.680 203 41.960L203 41.960Q203 40.600 204.360 39.700Q205.720 38.800 207.680 38.800L207.680 38.800Q209.920 38.800 211.240 40.020Q212.560 41.240 212.560 43.600L212.560 43.600Q212.560 47.160 210.300 49.220Q208.040 51.280 203.640 52L203.640 52L203.600 52.160Q204.960 52.720 205.720 54.160Q206.480 55.600 206.480 57.560L206.480 57.560Q206.480 61.080 204.220 64.020Q201.960 66.960 198.140 68.680Q194.320 70.400 189.840 70.400L189.840 70.400Q186.040 70.400 183.100 69.100Q180.160 67.800 178.540 65.460Q176.920 63.120 176.920 60.080L176.920 60.080Q176.920 57.240 178.240 55.020Q179.560 52.800 182 51.440L182 51.440Q181.520 50.760 181.240 49.800Q180.960 48.840 180.960 47.840L180.960 47.840Q180.960 45.960 181.920 44.300Q182.880 42.640 184.480 41.660Q186.080 40.680 187.920 40.680L187.920 40.680Q189.320 40.680 190.540 41.260Q191.760 41.840 192.460 42.820Q193.160 43.800 193.160 44.960L193.160 44.960Q193.160 46.080 192.540 46.760Q191.920 47.440 190.920 47.440L190.920 47.440Q189.800 47.440 189.480 46.840Q189.160 46.240 189.080 45L189.080 45Q189 43.720 188.640 43.080Q188.280 42.440 187.040 42.440L187.040 42.440Q185.880 42.440 184.880 43.120Q183.880 43.800 183.280 44.940Q182.680 46.080 182.680 47.440L182.680 47.440Q182.680 48.320 182.860 49.140Q183.040 49.960 183.400 50.520L183.400 50.520Q184.480 50.080 185.680 50.080L185.680 50.080Q186.800 50.080 187.500 50.600Q188.200 51.120 188.200 51.920L188.200 51.920Q188.200 52.800 187.580 53.360Q186.960 53.920 185.960 53.920L185.960 53.920Q185.240 53.920 184.380 53.580Q183.520 53.240 182.840 52.680L182.840 52.680Q181.400 53.240 180.460 54.780Q179.520 56.320 179.520 58.240L179.520 58.240Q179.520 60.640 181.020 62.520Q182.520 64.400 185.160 65.440Q187.800 66.480 191.160 66.480L191.160 66.480ZM224.520 59.560L225.680 59.560Q225.160 61.640 225.160 63.400L225.160 63.400Q225.160 68.800 230.640 68.800L230.640 68.800Q233.680 68.800 235.440 67.220Q237.200 65.640 237.200 62.920L237.200 62.920Q237.200 60.840 236.280 59.320Q235.360 57.800 233.560 55.880L233.560 55.880Q232.240 54.400 231.480 53.400Q230.720 52.400 230.180 51.020Q229.640 49.640 229.640 47.920L229.640 47.920Q229.640 45.280 230.920 43.200Q232.200 41.120 234.460 39.960Q236.720 38.800 239.600 38.800L239.600 38.800Q241.560 38.800 243.020 39.400Q244.480 40 245.640 41.280L245.640 41.280L247.480 39.200L248.760 39.200L245.320 48L244.120 48Q244.320 47.240 244.480 46.240Q244.640 45.240 244.640 44.520L244.640 44.520Q244.640 42.520 243.380 41.460Q242.120 40.400 239.760 40.400L239.760 40.400Q236.880 40.400 235.360 41.940Q233.840 43.480 233.840 46.360L233.840 46.360Q233.840 47.520 234.080 48.320Q234.320 49.120 234.940 50.040Q235.560 50.960 236.920 52.480L236.920 52.480Q239.640 55.640 240.580 57.440Q241.520 59.240 241.520 61.240L241.520 61.240Q241.520 63.840 240.060 65.920Q238.600 68 236.060 69.200Q233.520 70.400 230.400 70.400L230.400 70.400Q225.280 70.400 223.560 67.120L223.560 67.120L221.520 70L220.280 70L224.520 59.560ZM248.560 53.280Q249.680 52.080 250.640 51.420Q251.600 50.760 252.160 50.760L252.160 50.760Q252.640 50.760 252.640 51.280L252.640 51.280Q252.640 52.040 251.840 53.640L251.840 53.640L247.160 63.200Q246.160 65.280 246.160 66.840L246.160 66.840Q246.160 70.360 249.720 70.360L249.720 70.360Q251.920 70.360 253.880 68.900Q255.840 67.440 258.360 64L258.360 64L258.560 64.080Q257.320 66.560 257.320 68.080L257.320 68.080Q257.320 69.120 257.980 69.760Q258.640 70.400 259.600 70.400L259.600 70.400Q261 70.400 262.820 69.140Q264.640 67.880 266.240 65.840L266.240 65.840L265.440 65.200Q264.200 66.720 263.060 67.660Q261.920 68.600 261.200 68.600L261.200 68.600Q260.960 68.600 260.800 68.480Q260.640 68.360 260.640 68.120L260.640 68.120Q260.640 67.600 261.080 66.640L261.080 66.640L268.840 48.800L264.880 48.800L261.240 56.560Q259.560 60.120 257.700 62.960Q255.840 65.800 254.100 67.400Q252.360 69 251.080 69L251.080 69Q250.560 69 250.220 68.700Q249.880 68.400 249.880 67.880L249.880 67.880Q249.880 66.960 250.400 65.880L250.400 65.880L255.640 55.120Q257.040 52.200 257.040 50.480L257.040 50.480Q257.040 49.440 256.420 48.920Q255.800 48.400 254.680 48.400L254.680 48.400Q251.320 48.400 247.640 52.640L247.640 52.640L248.560 53.280ZM274.200 48.800L277.640 48.800L280.160 42.920L284.440 42.520L281.720 48.800L285.240 48.800L284.800 50.080L281.200 50.080L277.880 57.800L276.880 60.120Q275.360 63.600 274.740 65.160Q274.120 66.720 274.120 67.080L274.120 67.080Q274.120 68.040 275 68.040L275 68.040Q275.600 68.040 276.560 67.300Q277.520 66.560 279.160 64.840L279.160 64.840L279.960 65.320Q278.040 67.720 276.020 69.060Q274 70.400 272.240 70.400L272.240 70.400Q271.080 70.400 270.600 69.820Q270.120 69.240 270.120 67.880L270.120 67.880Q270.120 66.960 270.640 65.360Q271.160 63.760 272.880 59.800L272.880 59.800L277.080 50.080L273.760 50.080L274.200 48.800ZM287.760 48.800L291.200 48.800L293.720 42.920L298.000 42.520L295.280 48.800L298.800 48.800L298.360 50.080L294.760 50.080L291.440 57.800L290.440 60.120Q288.920 63.600 288.300 65.160Q287.680 66.720 287.680 67.080L287.680 67.080Q287.680 68.040 288.560 68.040L288.560 68.040Q289.160 68.040 290.120 67.300Q291.080 66.560 292.720 64.840L292.720 64.840L293.520 65.320Q291.600 67.720 289.580 69.060Q287.560 70.400 285.800 70.400L285.800 70.400Q284.640 70.400 284.160 69.820Q283.680 69.240 283.680 67.880L283.680 67.880Q283.680 66.960 284.200 65.360Q284.720 63.760 286.440 59.800L286.440 59.800L290.640 50.080L287.320 50.080L287.760 48.800ZM303.280 70.400Q306.480 70.400 309.800 68.040Q313.120 65.680 315.280 62.080Q317.440 58.480 317.440 54.960L317.440 54.960Q317.440 51.920 315.880 50.160Q314.320 48.400 311.480 48.400L311.480 48.400Q308.240 48.400 304.940 50.760Q301.640 53.120 299.500 56.720Q297.360 60.320 297.360 63.800L297.360 63.800Q297.360 66.880 298.900 68.640Q300.440 70.400 303.280 70.400L303.280 70.400ZM311.960 49.800Q312.960 49.800 313.420 50.480Q313.880 51.160 313.880 52.520L313.880 52.520Q313.880 55.360 311.940 59.300Q310.000 63.240 307.360 66.120Q304.720 69 302.800 69L302.800 69Q301.840 69 301.420 68.280Q301.000 67.560 301.000 66.080L301.000 66.080Q301.000 63.080 302.860 59.200Q304.720 55.320 307.320 52.560Q309.920 49.800 311.960 49.800L311.960 49.800ZM328.960 48.400Q327.040 48.400 324.980 49.640Q322.920 50.880 321.400 52.960L321.400 52.960L322.200 53.600Q323.440 52.080 324.600 51.140Q325.760 50.200 326.440 50.200L326.440 50.200Q327 50.200 327 50.800L327 50.800Q327 51.080 326.560 52.160L326.560 52.160L318.880 70L322.760 70L326.480 62.240Q328.160 58.720 330.140 55.880Q332.120 53.040 333.960 51.420Q335.800 49.800 337.160 49.800L337.160 49.800Q337.760 49.800 338.100 50.120Q338.440 50.440 338.440 51L338.440 51Q338.440 51.880 337.920 52.920L337.920 52.920L332.480 63.680Q331.040 66.560 331.040 68.280L331.040 68.280Q331.040 70.400 333.400 70.400L333.400 70.400Q337.160 70.400 341.440 65.040L341.440 65.040L340.600 64.440Q339.080 66.160 337.840 67.100Q336.600 68.040 335.920 68.040L335.920 68.040Q335.440 68.040 335.440 67.480L335.440 67.480Q335.440 66.760 336.240 65.160L336.240 65.160L340.920 55.600Q341.920 53.600 341.920 51.920L341.920 51.920Q341.920 50.200 341 49.320Q340.080 48.440 338.280 48.440L338.280 48.440Q336.080 48.440 333.980 49.920Q331.880 51.400 329.280 54.800L329.280 54.800L329.120 54.720Q330.080 52.960 330.480 51.880Q330.880 50.800 330.880 50L330.880 50Q330.880 49.160 330.420 48.780Q329.960 48.400 328.960 48.400L328.960 48.400Z" fill="#1a2332"></path>
</svg>