<?xml version="1.0" encoding="UTF-8"?>
<svg xmlns="http://www.w3.org/2000/svg" viewBox="0 0 100 100" role="img" aria-label="NG monogram">
  <circle cx="50" cy="50" r="50" fill="#0070BA"></circle>
  <path transform="translate(9.89, 67.71)" d="M34.868 0.460L31.694 0.460L9.062-28.060L9.062-2.576L13.110-1.702L13.110 0L1.794 0L1.794-1.702L5.888-2.576L5.888-32.844L1.840-33.718L1.840-35.420L14.306-35.420L31.694-13.570L31.694-32.844L27.646-33.718L27.646-35.420L38.962-35.420L38.962-33.718L34.868-32.844L34.868 0.460ZM74.336-3.726Q72.174-1.932 68.011-0.736Q63.848 0.460 59.846 0.460L59.846 0.460Q54.510 0.460 50.462-1.725Q46.414-3.910 44.183-7.912Q41.952-11.914 41.952-17.158L41.952-17.158Q41.952-22.586 44.298-26.841Q46.644-31.096 50.853-33.488Q55.062-35.880 60.398-35.880L60.398-35.880Q63.480-35.880 66.171-35.144Q68.862-34.408 70.564-33.074L70.564-33.074L70.748-33.074L72.772-35.420L74.244-35.420L74.244-24.150L72.174-24.150Q69.782-29.072 67.321-31.096Q64.860-33.120 61.226-33.120L61.226-33.120Q55.982-33.120 53.383-29.187Q50.784-25.254 50.784-17.342L50.784-17.342Q50.784-9.430 52.969-5.819Q55.154-2.208 59.846-2.208L59.846-2.208Q61.824-2.208 63.457-2.921Q65.090-3.634 65.918-4.830L65.918-4.830Q66.240-5.290 66.332-5.796Q66.424-6.302 66.424-7.406L66.424-7.406L66.424-15.180L62.284-16.054L62.284-17.756L78.430-17.756L78.430-16.054L74.336-15.180L74.336-3.726Z" fill="#ffffff"></path>
</svg>